<?xml version="1.0" encoding="UTF-8" standalone="no"?>
<!DOCTYPE svg PUBLIC "-//W3C//DTD SVG 1.1//EN" "http://www.w3.org/Graphics/SVG/1.1/DTD/svg11.dtd">
<svg width="100%" height="100%" viewBox="0 0 2564 1081" version="1.1" xmlns="http://www.w3.org/2000/svg" xmlns:xlink="http://www.w3.org/1999/xlink" xml:space="preserve" xmlns:serif="http://www.serif.com/" style="fill-rule:evenodd;clip-rule:evenodd;stroke-linejoin:round;stroke-miterlimit:2;">
    <g transform="matrix(1,0,0,1,-4824,-10328)">
        <g id="horizontal-putih" serif:id="horizontal putih" transform="matrix(1,0,0,1,0,2760.44)">
            <g transform="matrix(-0.563659,6.90283e-17,-7.02606e-17,-0.573722,11089.9,10439.4)">
                <path d="M7289.78,3190.02C7289.78,3172.06 7282.52,3154.82 7269.59,3142.12C7256.65,3129.41 7239.11,3122.27 7220.82,3122.27C7082.94,3122.27 6774.68,3122.27 6636.8,3122.27C6618.51,3122.27 6600.97,3129.41 6588.04,3142.12C6575.11,3154.82 6567.84,3172.06 6567.84,3190.02C6567.84,3483.51 6567.84,4643.48 6567.84,4936.97C6567.84,4954.94 6575.11,4972.17 6588.04,4984.87C6600.97,4997.58 6618.51,5004.72 6636.8,5004.72C6774.68,5004.72 7082.94,5004.72 7220.82,5004.72C7239.11,5004.72 7256.65,4997.58 7269.59,4984.87C7282.52,4972.17 7289.78,4954.94 7289.78,4936.97C7289.78,4643.48 7289.78,3483.51 7289.78,3190.02ZM7249.57,3190.02L7249.57,4936.97C7249.57,4944.46 7246.54,4951.64 7241.15,4956.94C7235.76,4962.23 7228.45,4965.21 7220.82,4965.21C7082.94,4965.21 6774.68,4965.21 6636.8,4965.21C6629.18,4965.21 6621.86,4962.23 6616.47,4956.94C6611.08,4951.64 6608.05,4944.46 6608.05,4936.97C6608.05,4643.48 6608.05,3483.51 6608.05,3190.02C6608.05,3182.53 6611.08,3175.35 6616.47,3170.05C6621.86,3164.76 6629.18,3161.78 6636.8,3161.78L7220.82,3161.78C7228.45,3161.78 7235.76,3164.76 7241.15,3170.05C7246.54,3175.35 7249.57,3182.53 7249.57,3190.02Z" style="fill:white;"/>
            </g>
            <g transform="matrix(-0.718858,8.80347e-17,-7.02606e-17,-0.573722,11648.7,10439.4)">
                <path d="M7289.78,3190.02C7289.78,3152.61 7265.58,3122.27 7235.71,3122.27L6621.91,3122.27C6592.05,3122.27 6567.84,3152.61 6567.84,3190.02C6567.84,3483.51 6567.84,4643.48 6567.84,4936.97C6567.84,4974.39 6592.05,5004.72 6621.91,5004.72C6755.84,5004.72 7101.78,5004.72 7235.71,5004.72C7265.58,5004.72 7289.78,4974.39 7289.78,4936.97L7289.78,3190.02ZM7258.25,3190.02L7258.25,4936.97C7258.25,4952.57 7248.16,4965.21 7235.71,4965.21C7235.71,4965.21 6621.91,4965.21 6621.91,4965.21C6609.46,4965.21 6599.37,4952.57 6599.37,4936.97C6599.37,4643.48 6599.37,3483.51 6599.37,3190.02C6599.37,3174.43 6609.46,3161.78 6621.91,3161.78C6621.91,3161.78 7235.61,3161.78 7235.71,3161.78C7248.16,3161.78 7258.25,3174.43 7258.25,3190.02Z" style="fill:white;"/>
            </g>
            <g transform="matrix(-0.886157,1.08523e-16,-7.02606e-17,-0.573722,12172.5,10439.4)">
                <path d="M7289.78,3190.02C7289.78,3172.06 7285.16,3154.82 7276.94,3142.12C7268.71,3129.41 7257.56,3122.27 7245.92,3122.27C7117.05,3122.27 6740.58,3122.27 6611.7,3122.27C6600.07,3122.27 6588.91,3129.41 6580.69,3142.12C6572.46,3154.82 6567.84,3172.06 6567.84,3190.02C6567.84,3483.51 6567.84,4643.48 6567.84,4936.97C6567.84,4954.94 6572.46,4972.17 6580.69,4984.87C6588.91,4997.58 6600.07,5004.72 6611.7,5004.72C6740.58,5004.72 7117.05,5004.72 7245.92,5004.72C7257.56,5004.72 7268.71,4997.58 7276.94,4984.87C7285.16,4972.17 7289.78,4954.94 7289.78,4936.97C7289.78,4643.48 7289.78,3483.51 7289.78,3190.02ZM7264.21,3190.02L7264.21,4936.97C7264.21,4944.46 7262.28,4951.64 7258.85,4956.94C7255.42,4962.23 7250.77,4965.21 7245.92,4965.21C7117.05,4965.21 6740.58,4965.21 6611.7,4965.21C6606.86,4965.21 6602.2,4962.23 6598.78,4956.94C6595.35,4951.64 6593.42,4944.46 6593.42,4936.97C6593.42,4643.48 6593.42,3483.51 6593.42,3190.02C6593.42,3182.53 6595.35,3175.35 6598.78,3170.05C6602.2,3164.76 6606.86,3161.78 6611.7,3161.78C6740.58,3161.78 7117.05,3161.78 7245.92,3161.78C7250.77,3161.78 7255.42,3164.76 7258.85,3170.05C7262.28,3175.35 7264.21,3182.53 7264.21,3190.02Z" style="fill:white;"/>
            </g>
            <g transform="matrix(-1.15873,1.41903e-16,-7.02606e-17,-0.573722,13271.9,10439.4)">
                <path d="M7289.78,3190.02C7289.78,3172.06 7286.25,3154.82 7279.96,3142.12C7273.67,3129.41 7265.14,3122.27 7256.24,3122.27C7135.28,3122.27 6722.34,3122.27 6601.39,3122.27C6592.49,3122.27 6583.96,3129.41 6577.67,3142.12C6571.38,3154.82 6567.84,3172.06 6567.84,3190.02L6567.84,4936.97C6567.84,4954.94 6571.38,4972.17 6577.67,4984.87C6583.96,4997.58 6592.49,5004.72 6601.39,5004.72C6722.34,5004.72 7135.28,5004.72 7256.24,5004.72C7265.14,5004.72 7273.67,4997.58 7279.96,4984.87C7286.25,4972.17 7289.78,4954.94 7289.78,4936.97C7289.78,4643.48 7289.78,3483.51 7289.78,3190.02ZM7270.22,3190.02L7270.22,4936.97C7270.22,4944.46 7268.75,4951.64 7266.13,4956.94C7263.51,4962.23 7259.95,4965.21 7256.24,4965.21C7135.28,4965.21 6722.34,4965.21 6601.39,4965.21C6597.68,4965.21 6594.12,4962.23 6591.5,4956.94C6588.88,4951.64 6587.4,4944.46 6587.4,4936.97L6587.4,3190.02C6587.4,3182.53 6588.88,3175.35 6591.5,3170.05C6594.12,3164.76 6597.68,3161.78 6601.39,3161.78L7256.24,3161.78C7259.95,3161.78 7263.51,3164.76 7266.13,3170.05C7268.75,3175.35 7270.22,3182.53 7270.22,3190.02Z" style="fill:white;"/>
            </g>
            <g transform="matrix(0.930331,0,0,0.930331,149.984,-1213.3)">
                <text x="5147.22px" y="10070.9px" style="font-family:'Poppins-Bold', 'Poppins';font-weight:700;font-size:146.803px;fill:white;">FESTIVAL</text>
            </g>
            <g transform="matrix(0.930331,0,0,0.930331,1135.86,-1212.34)">
                <text x="5147.22px" y="10070.9px" style="font-family:'Poppins-Bold', 'Poppins';font-weight:700;font-size:146.803px;fill:white;">VIP</text>
            </g>
            <g transform="matrix(0.930331,0,0,0.930331,1722.75,-1212.34)">
                <text x="5147.22px" y="10070.9px" style="font-family:'Poppins-Bold', 'Poppins';font-weight:700;font-size:146.803px;fill:white;">VVIP</text>
            </g>
            <g transform="matrix(0.63964,0,0,0.63964,3742.07,1700.43)">
                <text x="5147.22px" y="10070.9px" style="font-family:'Poppins-Bold', 'Poppins';font-weight:700;font-size:146.803px;fill:white;">STAGE</text>
            </g>
        </g>
    </g>
</svg>
