<?xml version="1.0" encoding="UTF-8" standalone="no"?>
<!DOCTYPE svg PUBLIC "-//W3C//DTD SVG 1.1//EN" "http://www.w3.org/Graphics/SVG/1.1/DTD/svg11.dtd">
<svg width="100%" height="100%" viewBox="0 0 2564 1081" version="1.1" xmlns="http://www.w3.org/2000/svg" xmlns:xlink="http://www.w3.org/1999/xlink" xml:space="preserve" xmlns:serif="http://www.serif.com/" style="fill-rule:evenodd;clip-rule:evenodd;stroke-linejoin:round;stroke-miterlimit:2;">
    <g transform="matrix(1,0,0,1,-4824,-7568)">
        <g id="horizontal-warna" serif:id="horizontal warna">
            <g transform="matrix(-0.563659,6.90283e-17,-7.02606e-17,-0.573722,11089.9,10439.4)">
                <path d="M7289.78,3190.02C7289.78,3172.06 7282.52,3154.82 7269.59,3142.12C7256.65,3129.41 7239.11,3122.27 7220.82,3122.27C7082.94,3122.27 6774.68,3122.27 6636.8,3122.27C6618.51,3122.27 6600.97,3129.41 6588.04,3142.12C6575.11,3154.82 6567.84,3172.06 6567.84,3190.02C6567.84,3483.51 6567.84,4643.48 6567.84,4936.97C6567.84,4954.94 6575.11,4972.17 6588.04,4984.87C6600.97,4997.58 6618.51,5004.72 6636.8,5004.72C6774.68,5004.72 7082.94,5004.72 7220.82,5004.72C7239.11,5004.72 7256.65,4997.58 7269.59,4984.87C7282.52,4972.17 7289.78,4954.94 7289.78,4936.97C7289.78,4643.48 7289.78,3483.51 7289.78,3190.02Z"/>
            </g>
            <g transform="matrix(-0.718858,8.80347e-17,-7.02606e-17,-0.573722,11648.7,10439.4)">
                <path d="M7289.78,3190.02C7289.78,3152.61 7265.58,3122.27 7235.71,3122.27C7101.78,3122.27 6755.84,3122.27 6621.91,3122.27C6592.05,3122.27 6567.84,3152.61 6567.84,3190.02C6567.84,3483.51 6567.84,4643.48 6567.84,4936.97C6567.84,4974.39 6592.05,5004.72 6621.91,5004.72C6755.84,5004.72 7101.78,5004.72 7235.71,5004.72C7265.58,5004.72 7289.78,4974.39 7289.78,4936.97C7289.78,4643.48 7289.78,3483.51 7289.78,3190.02Z" style="fill:rgb(211,48,125);"/>
            </g>
            <g transform="matrix(-0.886157,1.08523e-16,-7.02606e-17,-0.573722,12172.5,10439.4)">
                <path d="M7289.78,3190.02C7289.78,3172.06 7285.16,3154.82 7276.94,3142.12C7268.71,3129.41 7257.56,3122.27 7245.92,3122.27C7117.05,3122.27 6740.58,3122.27 6611.7,3122.27C6600.07,3122.27 6588.91,3129.41 6580.69,3142.12C6572.46,3154.82 6567.84,3172.06 6567.84,3190.02L6567.84,4936.97C6567.84,4954.94 6572.46,4972.17 6580.69,4984.87C6588.91,4997.58 6600.07,5004.72 6611.7,5004.72C6740.58,5004.72 7117.05,5004.72 7245.92,5004.72C7257.56,5004.72 7268.71,4997.58 7276.94,4984.87C7285.16,4972.17 7289.78,4954.94 7289.78,4936.97C7289.78,4643.48 7289.78,3483.51 7289.78,3190.02Z" style="fill:rgb(40,168,217);"/>
            </g>
            <g transform="matrix(-1.15873,1.41903e-16,-7.02606e-17,-0.573722,13271.9,10439.4)">
                <path d="M7289.78,3190.02C7289.78,3172.06 7286.25,3154.82 7279.96,3142.12C7273.67,3129.41 7265.14,3122.27 7256.24,3122.27C7135.28,3122.27 6722.34,3122.27 6601.39,3122.27C6592.49,3122.27 6583.96,3129.41 6577.67,3142.12C6571.38,3154.82 6567.84,3172.06 6567.84,3190.02L6567.84,4936.97C6567.84,4954.94 6571.38,4972.17 6577.67,4984.87C6583.96,4997.58 6592.49,5004.72 6601.39,5004.72C6722.34,5004.72 7135.28,5004.72 7256.24,5004.72C7265.14,5004.72 7273.67,4997.58 7279.96,4984.87C7286.25,4972.17 7289.78,4954.94 7289.78,4936.97L7289.78,3190.02Z" style="fill:rgb(212,165,49);"/>
            </g>
            <g transform="matrix(0.930331,0,0,0.930331,149.984,-1213.3)">
                <text x="5147.22px" y="10070.9px" style="font-family:'Poppins-Bold', 'Poppins';font-weight:700;font-size:146.803px;fill:white;">FESTIVAL</text>
            </g>
            <g transform="matrix(0.930331,0,0,0.930331,1135.86,-1212.34)">
                <text x="5147.22px" y="10070.9px" style="font-family:'Poppins-Bold', 'Poppins';font-weight:700;font-size:146.803px;fill:white;">VIP</text>
            </g>
            <g transform="matrix(0.930331,0,0,0.930331,1722.75,-1212.34)">
                <text x="5147.22px" y="10070.9px" style="font-family:'Poppins-Bold', 'Poppins';font-weight:700;font-size:146.803px;fill:white;">VVIP</text>
            </g>
            <g transform="matrix(0.63964,0,0,0.63964,3742.07,1700.43)">
                <text x="5147.22px" y="10070.9px" style="font-family:'Poppins-Bold', 'Poppins';font-weight:700;font-size:146.803px;fill:white;">STAGE</text>
            </g>
        </g>
    </g>
</svg>
